# Cubo unitario centrado en el origen
o Cube

# Posiciones de los vértices (v)
v -0.5 -0.5  0.5
v  0.5 -0.5  0.5
v -0.5  0.5  0.5
v  0.5  0.5  0.5
v -0.5  0.5 -0.5
v  0.5  0.5 -0.5
v -0.5 -0.5 -0.5
v  0.5 -0.5 -0.5

# Coordenadas de textura (vt) - Opcional
vt 0.0 0.0
vt 1.0 0.0
vt 0.0 1.0
vt 1.0 1.0

# Normales (vn) - Útiles para iluminación
vn  0.0  0.0  1.0
vn  0.0  0.0 -1.0
vn  0.0  1.0  0.0
vn  0.0 -1.0  0.0
vn  1.0  0.0  0.0
vn -1.0  0.0  0.0

# Caras (f) - Definidas como: vértice/textura/normal
f 1/1/1 2/2/1 4/4/1 3/3/1
f 3/1/3 4/2/3 6/4/3 5/3/3
f 5/1/2 6/2/2 8/4/2 7/3/2
f 7/1/4 8/2/4 2/4/4 1/3/4
f 2/1/5 8/2/5 6/4/5 4/3/5
f 7/1/6 1/2/6 3/4/6 5/3/6