v -0.5  0.5 -0.5
v -0.5  0.5  0.5
v  0.5  0.5  0.5
v  0.5  0.5 -0.5
v -0.5 -0.5 -0.5
v -0.5 -0.5  0.5
v  0.5 -0.5  0.5
v  0.5 -0.5 -0.5

vt 0 1
vt 0 0
vt 1 0
vt 1 1

vn  0  1  0
vn -1  0  0
vn  1  0  0
vn  0  0 -1
vn  0  0  1
vn  0 -1  0

# top
f 1/1/1 2/2/1 3/3/1
f 1/1/1 3/3/1 4/4/1

# left
f 1/1/2 5/2/2 6/3/2
f 1/1/2 6/3/2 2/4/2

# right
f 4/1/3 3/2/3 7/3/3
f 4/1/3 7/3/3 8/4/3

# front
f 2/1/5 6/2/5 7/3/5
f 2/1/5 7/3/5 3/4/5

# back
f 5/1/4 1/2/4 4/3/4
f 5/1/4 4/3/4 8/4/4

# bottom
f 5/1/6 8/2/6 7/3/6
f 5/1/6 7/3/6 6/4/6

# Blender3D v249 OBJ File: untitled.blend
# www.blender3d.org
# mtllib cube.mtl
# v 1.000000 -1.000000 -1.000000
# v 1.000000 -1.000000 1.000000
# v -1.000000 -1.000000 1.000000
# v -1.000000 -1.000000 -1.000000
# v 1.000000 1.000000 -1.000000
# v 0.999999 1.000000 1.000001
# v -1.000000 1.000000 1.000000
# v -1.000000 1.000000 -1.000000
# vt 0.748573 0.750412
# vt 0.749279 0.501284
# vt 0.999110 0.501077
# vt 0.999455 0.750380
# vt 0.250471 0.500702
# vt 0.249682 0.749677
# vt 0.001085 0.750380
# vt 0.001517 0.499994
# vt 0.499422 0.500239
# vt 0.500149 0.750166
# vt 0.748355 0.998230
# vt 0.500193 0.998728
# vt 0.498993 0.250415
# vt 0.748953 0.250920
# vn 0.000000 0.000000 -1.000000
# vn -1.000000 -0.000000 -0.000000
# vn -0.000000 -0.000000 1.000000
# vn -0.000001 0.000000 1.000000
# vn 1.000000 -0.000000 0.000000
# vn 1.000000 0.000000 0.000001
# vn 0.000000 1.000000 -0.000000
# vn -0.000000 -1.000000 0.000000
# # usemtl Material_ray.png
# # s off
# f 5/1/1 1/2/1 4/3/1
# f 5/1/1 4/3/1 8/4/1
# f 3/5/2 7/6/2 8/7/2
# f 3/5/2 8/7/2 4/8/2
# f 2/9/3 6/10/3 3/5/3
# f 6/10/4 7/6/4 3/5/4
# f 1/2/5 5/1/5 2/9/5
# f 5/1/6 6/10/6 2/9/6
# f 5/1/7 8/11/7 6/10/7
# f 8/11/7 7/12/7 6/10/7
# f 1/2/8 2/9/8 3/13/8
# f 1/2/8 3/13/8 4/14/8
